<?xml version="1.0" standalone="no"?>
<!DOCTYPE svg PUBLIC "-//W3C//DTD SVG 20010904//EN"
 "http://www.w3.org/TR/2001/REC-SVG-20010904/DTD/svg10.dtd">
<svg version="1.0" xmlns="http://www.w3.org/2000/svg"
 width="100.000000pt" height="100.000000pt" viewBox="0 0 100.000000 100.000000"
 preserveAspectRatio="xMidYMid meet">
<metadata>
Created by potrace 1.14, written by Peter Selinger 2001-2017
</metadata>
<g transform="translate(0.000000,100.000000) scale(0.100000,-0.100000)"
fill="#000000" stroke="none">
<path d="M0 500 l0 -500 500 0 500 0 0 500 0 500 -500 0 -500 0 0 -500z m205
0 c0 -211 -2 -245 -15 -245 -13 0 -15 35 -18 248 -2 233 -1 248 15 245 17 -3
18 -22 18 -248z m155 0 l0 -250 -25 0 -25 0 0 250 0 250 25 0 25 0 0 -250z
m158 3 l-3 -248 -35 0 -35 0 -3 248 -2 247 40 0 40 0 -2 -247z m152 -3 l0
-250 -45 0 -45 0 0 250 0 250 45 0 45 0 0 -250z m155 0 l0 -245 -55 0 -55 0
-3 235 c-1 129 0 241 3 248 3 9 21 12 57 10 l53 -3 0 -245z"/>
</g>
</svg>
