<svg width="220" height="54" viewBox="0 0 220 54" fill="none" xmlns="http://www.w3.org/2000/svg">
<path d="M2.35547 24.7953H11.9139C18.4176 24.7953 22.9386 19.6157 22.9386 12.9043C22.9386 5.83479 17.9067 1.10156 11.3252 1.10156H2.35547V24.7953ZM5.44349 21.8087V4.01093H11.1752C16.1405 4.01093 19.7062 7.76886 19.7062 12.987C19.7062 18.0894 16.3238 21.8032 11.6195 21.8032L5.44349 21.8087Z" fill="#FCFCF5"/>
<path d="M34.4353 25.2417C38.5564 25.2417 42.0109 22.9054 42.8163 19.693L39.4839 18.6736C39.0396 20.7895 36.8346 22.3213 34.4075 22.3213C31.3917 22.3213 29.1146 20.0621 28.6758 16.8112H42.9051C42.9334 16.6067 42.9464 16.4004 42.944 16.194C42.944 10.3588 39.5616 6.12695 34.2687 6.12695C29.1201 6.12695 25.4434 10.1769 25.4434 15.7587C25.4434 21.3405 29.1201 25.2417 34.4353 25.2417ZM28.7535 13.9679C29.3089 10.9759 31.3973 8.9702 34.1187 8.9702C36.8402 8.9702 39.1951 10.761 39.7838 13.9679H28.7535Z" fill="#FCFCF5"/>
<path d="M62.7995 18.5301L59.4282 17.5052C59.3718 18.828 58.7921 20.0754 57.8148 20.977C56.8375 21.8785 55.5413 22.3614 54.2075 22.3211C50.9695 22.3211 48.4702 19.6928 48.4702 15.7089C48.4702 11.7251 50.9695 8.99754 54.2075 8.99754C55.4789 8.99534 56.705 9.46608 57.6438 10.3168C58.5825 11.1676 59.1657 12.3365 59.2783 13.593L62.5162 12.5736C61.7776 8.85428 58.3618 6.1543 54.1852 6.1543C49.1866 6.1543 45.2988 10.0941 45.2988 15.7089C45.2988 21.4395 49.3033 25.269 54.3407 25.269C58.6062 25.2415 62.133 22.4644 62.7995 18.5301Z" fill="#FCFCF5"/>
<path d="M76.7004 16.0462V17.2143C76.7004 20.1347 74.24 22.3939 71.1853 22.3939C69.1303 22.3939 67.9528 21.4131 67.9528 19.9859C67.9528 18.5588 68.8359 17.5449 70.5965 17.2309L75.4507 16.3547C75.8747 16.2844 76.2926 16.1812 76.7004 16.0462V16.0462ZM64.7148 19.9859C64.7148 23.0551 67.0697 25.2426 70.5965 25.2426C73.5401 25.2426 75.7451 23.9257 76.8115 21.8098L77.2891 24.8018H79.7162L79.644 21.1541V12.674C79.644 8.69562 76.556 6.10584 72.5849 6.10584C70.7613 6.05943 68.9893 6.70919 67.6344 7.92108C66.2796 9.13296 65.4453 10.8145 65.3036 12.6189L68.5416 13.1313C68.6138 10.5801 70.2078 8.75623 72.6571 8.75623C73.1857 8.73516 73.7132 8.82137 74.2071 9.00958C74.701 9.1978 75.151 9.48405 75.5295 9.85081C75.908 10.2176 76.2071 10.6571 76.4085 11.1426C76.6098 11.628 76.7091 12.1491 76.7004 12.674V12.8172C76.7004 13.3297 76.2227 13.7319 75.5229 13.8366L69.8634 14.878C66.481 15.5007 64.7148 17.3631 64.7148 19.9859Z" fill="#FCFCF5"/>
<path d="M91.7532 25.242C93.0293 25.2749 94.2922 24.9795 95.4192 24.3847C96.5462 23.79 97.4989 22.916 98.1847 21.8478L98.5513 24.8012H101.051L100.978 21.1535V0H98.0403V9.36727C97.3176 8.34431 96.3526 7.51328 95.2301 6.94734C94.1076 6.38139 92.8621 6.09789 91.6032 6.12179C86.5657 6.12179 82.7168 10.2434 82.7168 15.6048C82.7168 20.9662 86.6768 25.242 91.7532 25.242ZM85.8326 15.6819C85.8326 11.7807 88.3708 8.97054 91.8976 8.97054C95.4244 8.97054 98.1125 11.7807 98.1125 15.6819C98.1125 19.5831 95.6132 22.2941 92.0475 22.2941C88.4819 22.2941 85.8326 19.5115 85.8326 15.6819Z" fill="#FCFCF5"/>
<path d="M113.613 25.2417C117.734 25.2417 121.189 22.9054 122 19.693L118.667 18.6736C118.223 20.7895 116.018 22.3213 113.591 22.3213C110.575 22.3213 108.298 20.0621 107.859 16.8112H122.083C122.111 16.6067 122.124 16.4004 122.122 16.194C122.122 10.3588 118.739 6.12695 113.446 6.12695C108.298 6.12695 104.621 10.1769 104.621 15.7587C104.621 21.3405 108.303 25.2417 113.613 25.2417ZM107.953 13.9679C108.509 10.9759 110.597 8.9702 113.319 8.9702C116.04 8.9702 118.395 10.761 118.984 13.9679H107.953Z" fill="#FCFCF5"/>
<path d="M0 29.8535L8.74755 53.5472H12.2799L20.8831 29.8535H17.5507L10.5859 49.8389L3.36573 29.8535H0Z" fill="#FCFCF5"/>
<path d="M29.2803 53.9995C33.3958 53.9995 36.8504 51.6632 37.6613 48.4563L34.3289 47.4314C33.8901 49.5473 31.6851 51.0791 29.258 51.0791C26.2422 51.0791 23.9651 48.82 23.5208 45.569H37.7668C37.791 45.3623 37.8022 45.1544 37.8001 44.9463C37.8057 39.1221 34.4344 34.8848 29.1303 34.8848C23.9873 34.8848 20.3105 38.9347 20.3105 44.5165C20.3105 50.0983 23.9873 53.9995 29.2803 53.9995ZM23.6152 42.7312C24.1706 39.7392 26.2644 37.7335 28.9859 37.7335C31.7074 37.7335 34.0567 39.5188 34.6454 42.7312H23.6152Z" fill="#FCFCF5"/>
<path d="M54.3508 42.6927V53.5642H57.2944V42.4723C57.2944 38.0641 54.3175 34.8848 50.1631 34.8848C47.2195 34.8848 45.0534 36.4221 44.0981 38.6813L43.6927 35.3256H41.1934V53.5642H44.1314V43.7892C44.1314 40.3233 46.6696 37.8052 49.7188 37.8052C52.4791 37.8052 54.3508 39.8494 54.3508 42.6927Z" fill="#FCFCF5"/>
<path d="M59.2051 38.1685H62.2042V49.3321C62.2042 52.1368 64.2259 53.9992 67.2028 53.9992C67.9002 53.9993 68.594 53.901 69.2634 53.7072L69.1912 50.7868C68.6907 50.9374 68.1701 51.0117 67.6472 51.0072C66.1365 51.0072 65.1423 50.098 65.1423 48.7481V38.1685H69.1912V35.3253H65.1423V30.6582H62.3653V33.0606C62.3653 34.3721 61.5211 35.3198 60.3825 35.3198H59.2051V38.1685Z" fill="#FCFCF5"/>
<path d="M87.8746 53.5629L87.7969 49.9151V35.3242H84.8588V45.3197C84.8588 48.78 82.3206 51.0061 79.4159 51.0061C76.6389 51.0061 74.856 48.9619 74.856 46.1903V35.3242H71.918V46.4823C71.918 50.8243 74.8949 53.9982 78.9771 53.9982C81.7541 53.9982 84.1201 52.5765 84.931 50.4606L85.2976 53.5629H87.8746Z" fill="#FCFCF5"/>
<path d="M92.1973 53.5642H95.1409V43.0563C95.1409 40.2131 96.9793 38.1688 99.5508 38.1688C100.33 38.1709 101.095 38.3721 101.772 38.7529L101.922 35.3256C101.271 35.0475 100.571 34.8978 99.8618 34.8848C97.7291 34.8848 95.974 36.2348 95.0853 38.3507L94.7188 35.3256H92.1973V53.5642Z" fill="#FCFCF5"/>
<path d="M112.19 53.9992C116.311 53.9992 119.766 51.6629 120.571 48.4559L117.267 47.4311C116.822 49.547 114.618 51.0788 112.19 51.0788C109.175 51.0788 106.897 48.8196 106.459 45.5686H120.682C120.711 45.3623 120.724 45.1542 120.721 44.946C120.721 39.1107 117.339 34.8789 112.046 34.8789C106.897 34.8789 103.221 38.9289 103.221 44.5107C103.221 50.0925 106.92 53.9992 112.19 53.9992ZM106.553 42.7309C107.109 39.7389 109.197 37.7332 111.918 37.7332C114.64 37.7332 116.995 39.5185 117.583 42.7309H106.553Z" fill="#FCFCF5"/>
<path d="M126.037 47.2885L122.805 48.1646C123.06 51.5589 126.37 53.9999 130.747 53.9999C134.935 53.9999 137.806 51.7958 137.806 48.5999C137.806 42.2191 126.848 43.9328 126.848 39.993C126.848 38.5328 128.392 37.5851 130.23 37.5851C132.363 37.5851 134.052 38.8634 134.118 40.6487L137.206 39.8498C136.801 36.968 134.007 34.8906 130.219 34.8906C126.581 34.8906 123.677 36.6429 123.677 39.8498C123.677 46.2305 134.557 44.4452 134.557 48.5999C134.557 50.1317 133.013 51.2282 130.952 51.2282C128.431 51.2448 126.187 49.5917 126.037 47.2885Z" fill="#FCFCF5"/>
<path d="M219.999 1.12891H208.258V53.9989H219.999V1.12891Z" fill="#FCFCF5"/>
<path d="M203.12 1.0957H193.578V53.9657H203.12V1.0957Z" fill="#FCFCF5"/>
<path d="M186.241 1.0957H178.904V53.9657H186.241V1.0957Z" fill="#FCFCF5"/>
<path d="M169.364 1.0957H164.227V53.9657H169.364V1.0957Z" fill="#FCFCF5"/>
<path d="M149.547 53.966H152.485V1.10156H149.547V53.966Z" fill="#FCFCF5"/>
</svg>
